<?xml version="1.0" standalone="no"?>
<!DOCTYPE svg PUBLIC "-//W3C//DTD SVG 20010904//EN"
 "http://www.w3.org/TR/2001/REC-SVG-20010904/DTD/svg10.dtd">
<svg version="1.0" xmlns="http://www.w3.org/2000/svg"
 width="1220.000000pt" height="1050.000000pt" viewBox="0 0 1220.000000 1050.000000"
 preserveAspectRatio="xMidYMid meet">

<g transform="translate(0.000000,1050.000000) scale(0.100000,-0.100000)"
fill="#000000" stroke="none">
<path d="M6418 9953 c-33 -38 -38 -64 -38 -189 0 -109 3 -134 21 -170 33 -70
85 -71 119 -4 17 33 20 59 20 174 l0 135 -31 36 c-34 39 -67 45 -91 18z"/>
<path d="M7338 9632 c-42 -19 -173 -167 -195 -219 -16 -40 -17 -95 -1 -111 17
-17 53 -15 97 7 40 21 181 184 193 223 12 44 8 78 -12 98 -24 24 -34 24 -82 2z"/>
<path d="M5503 9608 c-36 -47 -17 -101 77 -212 92 -109 170 -152 208 -114 16
16 15 71 -2 111 -20 46 -142 189 -179 210 -37 20 -90 22 -104 5z"/>
<path d="M6325 9343 c-163 -36 -274 -81 -382 -154 -79 -53 -204 -188 -254
-275 -101 -173 -134 -306 -127 -513 5 -112 10 -151 33 -221 77 -238 221 -416
435 -537 207 -117 483 -143 718 -67 424 138 685 562 618 1001 -30 200 -110
357 -256 504 -137 138 -288 221 -467 255 -69 13 -271 18 -318 7z m345 -183
c255 -73 454 -278 520 -535 27 -107 27 -263 0 -369 -55 -207 -202 -388 -396
-485 -188 -93 -444 -96 -637 -8 -111 51 -235 153 -304 252 -172 246 -174 592
-5 842 121 179 293 287 522 327 57 10 228 -3 300 -24z"/>
<path d="M7710 8799 c-113 -22 -152 -39 -183 -81 -19 -25 -19 -28 -4 -52 29
-43 84 -51 212 -31 122 20 153 32 184 71 28 36 27 70 -4 90 -37 24 -90 25
-205 3z"/>
<path d="M5073 8778 c-38 -10 -74 -52 -66 -76 8 -23 34 -52 56 -63 23 -13 212
-49 255 -49 41 0 100 24 108 45 22 56 -46 105 -176 129 -127 22 -142 24 -177
14z"/>
<path d="M3396 8146 c-54 -23 -90 -48 -126 -87 -11 -13 -38 -18 -111 -21 -84
-3 -105 -8 -162 -36 -83 -41 -166 -129 -198 -209 -33 -82 -33 -224 0 -306 32
-81 115 -168 199 -209 l67 -33 445 0 445 0 57 28 c83 41 160 128 188 213 77
231 -74 466 -317 491 -29 3 -53 9 -53 14 0 25 -84 108 -141 139 -56 30 -75 34
-149 37 -73 3 -94 0 -144 -21z m200 -147 c40 -12 78 -53 102 -109 28 -67 43
-75 124 -72 83 3 138 -18 184 -70 92 -105 62 -264 -62 -328 l-48 -25 -366 -2
c-228 -2 -383 2 -413 8 -54 12 -121 59 -154 108 -12 18 -27 56 -34 85 -10 44
-9 62 5 110 38 131 157 200 294 172 74 -14 98 -10 120 21 77 112 136 136 248
102z"/>
<path d="M7411 7971 c-20 -20 -20 -23 -6 -58 23 -53 37 -66 144 -129 102 -61
157 -75 201 -52 14 8 27 24 29 38 6 49 -26 85 -137 151 -85 50 -116 63 -158
67 -43 4 -55 1 -73 -17z"/>
<path d="M5339 7900 c-109 -61 -137 -88 -146 -143 -4 -24 0 -37 16 -51 34 -31
92 -17 210 50 108 62 151 105 151 154 0 38 -18 50 -74 50 -44 0 -66 -9 -157
-60z"/>
<path d="M4871 7648 c-14 -7 -65 -69 -115 -138 -123 -170 -286 -333 -386 -385
-134 -69 -273 -230 -474 -548 -59 -93 -87 -95 -308 -21 -77 26 -142 42 -155
39 -32 -8 -63 -45 -63 -76 0 -58 25 -72 274 -155 199 -67 239 -77 263 -69 21
8 40 33 83 112 119 218 235 388 332 484 31 32 89 73 138 99 68 36 107 68 200
160 64 63 146 150 183 192 99 113 96 113 309 -7 176 -99 228 -137 255 -189 22
-42 10 -79 -55 -170 -32 -45 -134 -188 -226 -318 l-168 -238 -131 -41 c-73
-22 -203 -64 -289 -92 l-158 -52 -585 -564 c-322 -310 -595 -575 -605 -589
-42 -53 -6 -132 60 -132 36 0 -18 -50 728 670 l494 475 287 91 c158 50 292 94
298 97 7 4 31 35 55 70 25 34 130 181 235 327 104 146 243 342 307 435 65 94
134 187 154 208 42 43 88 59 135 46 19 -5 257 -194 617 -489 322 -264 595
-483 608 -486 36 -10 75 13 122 72 72 91 112 101 193 48 31 -20 662 -535 1031
-842 103 -85 123 -95 166 -81 36 13 50 35 50 80 0 26 -9 41 -42 70 -37 32
-849 700 -1164 957 -60 48 -114 85 -133 88 -30 6 -37 1 -110 -75 -87 -91 -101
-96 -169 -58 -23 12 -305 238 -627 502 -322 264 -597 484 -611 490 -42 16 -73
-11 -156 -135 -42 -63 -88 -125 -103 -137 -34 -30 -87 -38 -138 -23 -23 7
-156 77 -295 157 -139 80 -260 147 -270 149 -9 2 -28 -1 -41 -8z"/>
<path d="M8795 7520 c-76 -25 -144 -75 -181 -133 -28 -43 -31 -45 -85 -49
-120 -9 -242 -98 -297 -216 -23 -49 -27 -70 -27 -152 0 -88 3 -101 33 -162 38
-78 100 -138 182 -177 l55 -26 413 -3 c456 -3 479 -1 574 59 114 73 179 182
186 315 8 145 -46 263 -156 346 -75 57 -150 81 -248 82 -68 1 -73 3 -114 40
-93 84 -223 113 -335 76z m189 -165 c24 -12 49 -35 65 -61 38 -62 58 -70 136
-55 82 17 140 8 198 -29 163 -103 148 -345 -28 -426 -50 -24 -52 -24 -440 -24
-440 0 -441 1 -503 76 -90 109 -58 259 70 325 27 14 58 19 116 19 88 0 98 6
126 75 46 109 153 151 260 100z"/>
<path d="M6840 7480 c-38 -38 -37 -85 6 -209 44 -128 62 -157 112 -178 30 -12
37 -12 57 1 40 27 40 74 -1 194 -41 119 -64 163 -97 184 -41 27 -57 28 -77 8z"/>
<path d="M4798 7050 c-69 -37 -68 -84 2 -120 38 -20 55 -21 210 -18 162 3 169
4 194 27 34 32 33 61 -5 97 l-30 29 -167 2 c-151 3 -171 1 -204 -17z"/>
<path d="M4365 6725 c-69 -24 -94 -75 -56 -109 43 -39 88 -45 316 -45 239 0
275 6 309 52 l20 27 -20 28 c-42 57 -67 62 -309 62 -164 -1 -230 -5 -260 -15z"/>
<path d="M5900 6724 c-96 -42 -93 -104 7 -140 28 -9 98 -13 258 -13 196 -1
225 2 262 19 72 32 68 92 -7 130 -36 18 -58 20 -262 20 -176 -1 -230 -4 -258
-16z"/>
<path d="M6517 6426 c-78 -29 -99 -77 -51 -115 45 -36 92 -43 246 -39 130 3
150 5 175 24 18 13 29 32 31 52 3 25 -3 35 -34 59 -37 27 -40 28 -183 31 -106
1 -156 -2 -184 -12z"/>
<path d="M4118 6387 c-37 -17 -68 -47 -68 -67 0 -21 36 -55 73 -69 16 -6 63
-11 106 -11 65 0 84 4 112 23 56 38 47 87 -23 123 -33 17 -162 17 -200 1z"/>
<path d="M6786 6097 c-42 -10 -86 -49 -86 -75 0 -10 9 -27 19 -36 46 -42 79
-45 489 -46 418 0 434 2 477 49 18 20 18 25 5 48 -8 14 -26 34 -40 45 -24 17
-52 19 -427 21 -221 1 -417 -2 -437 -6z"/>
<path d="M5356 6030 c-36 -11 -76 -48 -76 -70 0 -22 26 -45 73 -65 54 -22 296
-21 344 2 69 32 63 97 -12 129 -39 16 -279 19 -329 4z"/>
<path d="M2186 5901 c-24 -26 -45 -87 -46 -131 -1 -69 -42 -131 -184 -277
-132 -137 -156 -170 -156 -219 0 -20 5 -24 28 -24 44 1 76 21 167 103 124 111
148 106 147 -35 -2 -135 -19 -163 -257 -398 -174 -173 -215 -225 -215 -275 0
-21 5 -25 30 -25 52 0 90 27 230 165 74 73 146 136 159 140 39 12 52 -12 52
-94 0 -117 -14 -138 -250 -376 -115 -115 -216 -224 -225 -242 -9 -18 -16 -46
-16 -63 0 -23 4 -30 20 -30 46 0 99 35 199 133 172 166 208 197 235 197 32 0
36 -14 37 -140 1 -154 -8 -170 -185 -350 -145 -146 -180 -193 -174 -233 7 -50
86 -23 179 60 94 84 120 103 144 103 13 0 26 -8 30 -17 3 -10 9 -247 12 -528
3 -280 11 -558 17 -617 l12 -108 -811 -2 c-774 -3 -812 -4 -848 -22 -72 -36
-72 -87 0 -122 37 -19 178 -19 5541 -22 5391 -2 5505 -2 5547 17 74 33 69 93
-10 131 -41 20 -60 20 -1232 20 l-1190 0 10 48 c5 26 11 307 14 624 5 620 4
608 55 594 13 -3 67 -44 121 -90 127 -109 197 -134 197 -71 0 48 -32 89 -185
240 -180 177 -185 186 -185 356 0 177 22 174 230 -27 82 -79 165 -151 184
-159 73 -31 93 -13 69 60 -11 30 -66 92 -232 260 -241 243 -251 258 -251 380
0 74 15 101 51 90 13 -4 85 -67 159 -140 141 -138 178 -165 230 -165 25 0 30
4 30 24 0 52 -27 86 -220 282 -236 238 -250 260 -250 394 0 137 24 143 146 34
94 -84 126 -104 167 -104 24 0 27 4 27 30 0 52 -27 89 -166 231 -143 146 -160
173 -175 277 -11 75 -34 120 -67 129 -44 11 -70 -30 -83 -128 -5 -38 -18 -88
-30 -111 -12 -24 -84 -106 -160 -184 -110 -113 -140 -149 -149 -183 -13 -49
-8 -61 26 -61 40 0 84 28 166 106 118 112 154 100 146 -50 -3 -58 -11 -94 -27
-126 -14 -28 -97 -120 -216 -240 -209 -212 -232 -243 -226 -307 1 -15 40 -17
75 -3 14 5 88 68 163 141 159 151 175 163 202 154 40 -13 40 -148 -1 -228 -12
-24 -111 -133 -233 -257 -158 -160 -215 -225 -225 -253 -14 -45 -8 -67 20 -67
43 0 101 43 248 184 206 198 227 197 220 -8 -5 -149 -16 -167 -188 -336 -139
-135 -170 -177 -170 -225 0 -64 73 -37 197 71 99 87 133 101 153 65 6 -13 10
-179 10 -468 1 -411 8 -630 26 -740 l7 -43 -308 0 -307 0 24 29 c14 16 30 51
37 77 7 27 25 92 39 144 44 157 36 350 -29 700 -39 205 -70 327 -109 427 -16
43 -44 148 -62 233 l-33 155 0 392 c0 380 -1 393 -20 411 -11 10 -83 45 -160
77 -77 32 -257 117 -400 187 -254 126 -710 315 -900 374 -118 37 -230 39 -291
7 -87 -46 -125 -118 -174 -328 -38 -164 -115 -386 -173 -500 -34 -67 -61 -101
-166 -205 -243 -242 -658 -553 -901 -675 -188 -95 -272 -112 -581 -119 -118
-3 -251 -12 -295 -20 -194 -34 -315 -142 -369 -331 -20 -67 -16 -187 11 -375
23 -162 101 -308 227 -427 57 -54 291 -213 313 -213 7 0 16 -4 19 -10 4 -7
-365 -10 -1101 -10 l-1106 0 7 33 c4 17 10 298 14 622 3 325 10 596 14 603 18
27 55 10 148 -69 163 -140 248 -159 205 -45 -13 33 -54 79 -164 187 -180 175
-194 198 -200 343 -5 118 6 156 42 156 18 0 67 -39 181 -147 158 -149 201
-182 243 -183 30 0 37 23 23 72 -10 33 -53 80 -227 252 -235 233 -251 255
-261 374 -5 57 -2 71 14 91 15 18 25 22 42 16 13 -4 88 -70 166 -146 140 -135
172 -159 220 -159 33 0 38 25 15 78 -15 34 -73 100 -215 242 -216 217 -233
243 -242 363 -11 151 26 164 145 53 86 -80 127 -106 167 -106 33 0 40 20 24
67 -8 27 -53 80 -149 178 -75 77 -145 156 -155 174 -9 19 -23 71 -31 115 -20
117 -65 165 -108 117z m4674 -239 c209 -72 606 -240 825 -349 132 -65 269
-132 304 -147 119 -53 199 -159 172 -228 -12 -32 -65 -68 -100 -68 -32 0 -348
114 -629 226 -128 52 -342 133 -475 180 -251 89 -314 121 -368 181 -28 32 -31
42 -27 83 6 59 41 134 71 149 34 17 132 5 227 -27z m18 -523 c141 -50 351
-129 465 -176 115 -46 270 -106 345 -132 343 -121 367 -133 398 -193 19 -36
18 -114 -2 -147 -32 -55 -14 -52 -427 -66 l-179 -7 -54 27 c-37 18 -92 65
-176 148 -181 180 -309 291 -372 320 -31 15 -122 45 -202 67 -192 53 -224 76
-210 154 10 53 66 94 129 95 16 1 144 -40 285 -90z m-320 -289 c239 -60 267
-74 413 -209 108 -100 178 -182 213 -249 20 -38 21 -112 2 -155 -16 -39 -247
-353 -362 -493 -124 -151 -166 -184 -349 -273 -214 -105 -266 -127 -570 -244
-143 -55 -289 -111 -325 -124 -196 -76 -371 -109 -519 -100 -334 21 -639 132
-846 307 -90 76 -121 120 -136 188 -27 133 7 236 98 289 82 48 123 54 398 64
143 4 289 13 325 18 93 15 119 4 186 -80 60 -75 91 -91 133 -68 36 20 49 61
32 102 -40 99 -42 106 -27 136 8 15 29 34 45 41 39 16 66 0 111 -65 48 -69 94
-84 137 -43 30 28 29 66 -1 126 -37 73 -40 98 -14 116 46 32 88 17 160 -56 41
-44 72 -48 112 -17 33 26 34 59 0 135 -23 52 -24 63 -14 97 6 21 30 58 54 82
33 35 50 45 75 45 34 0 57 -18 143 -118 44 -51 84 -56 123 -17 34 33 31 64
-10 121 -45 64 -57 91 -57 136 1 55 27 97 74 118 58 26 84 13 174 -86 80 -88
110 -105 149 -84 64 34 51 104 -38 198 -67 71 -87 101 -87 128 0 24 25 49 55
57 11 2 21 5 23 6 2 0 56 -12 120 -29z m1508 -585 c84 -25 159 -112 179 -205
4 -19 25 -82 47 -140 60 -160 149 -633 134 -712 -13 -72 -66 -93 -262 -105
-129 -8 -471 12 -679 39 -88 12 -218 21 -290 22 -112 0 -149 -4 -265 -31 -211
-50 -611 -109 -767 -114 -78 -3 -118 44 -80 94 6 9 100 54 207 100 349 150
450 209 566 329 69 71 193 228 333 423 52 72 113 149 135 173 46 48 120 94
181 112 101 28 482 39 561 15z m-3703 -1241 c92 -47 306 -117 433 -143 166
-34 263 -40 714 -43 405 -3 451 -1 668 22 247 26 264 25 270 -20 5 -31 -59
-95 -117 -116 -32 -11 -106 -19 -241 -25 -107 -5 -271 -13 -365 -19 -212 -13
-473 -13 -585 0 -47 5 -143 14 -215 20 -146 12 -305 42 -380 72 -56 22 -217
127 -284 186 -44 38 -44 40 -32 71 18 41 43 40 134 -5z m3128 -40 c320 -32
505 -41 689 -32 127 6 149 4 175 -11 28 -16 30 -22 30 -74 -1 -69 -24 -106
-81 -126 -40 -14 -281 -20 -494 -12 -58 2 -206 3 -330 2 -279 -2 -352 10 -404
68 -15 16 -18 32 -14 80 5 66 22 95 73 117 42 18 69 17 356 -12z m-624 -179
c15 -10 23 -30 28 -67 4 -29 13 -68 21 -85 l13 -33 -217 0 -217 0 30 25 c64
54 172 128 220 151 58 28 92 30 122 9z"/>
<path d="M4798 5803 c-28 -32 -45 -77 -51 -135 -8 -85 -36 -137 -127 -234 -45
-49 -91 -106 -101 -127 -26 -49 -22 -91 8 -95 25 -4 94 29 136 64 65 55 91 17
84 -121 -6 -128 -29 -169 -178 -315 -145 -143 -190 -223 -139 -250 30 -16 95
16 174 88 81 74 103 83 128 52 14 -18 18 -40 18 -109 0 -121 19 -294 39 -360
13 -43 22 -57 38 -59 17 -2 24 6 37 40 29 78 38 141 45 310 9 229 21 240 145
128 68 -62 107 -86 141 -90 59 -7 64 2 43 74 -9 32 -43 72 -145 178 -156 159
-173 190 -180 318 -8 133 19 170 84 116 42 -35 111 -68 136 -64 14 2 23 11 25
26 7 46 -21 95 -107 186 -94 100 -125 154 -136 231 -12 90 -16 105 -42 135
-28 34 -53 38 -75 13z"/>
<path d="M5680 5358 c-73 -38 -78 -66 -17 -112 59 -44 209 -28 237 25 25 46
-54 109 -136 109 -22 0 -60 -10 -84 -22z"/>
<path d="M4149 5170 c-72 -21 -104 -67 -72 -102 61 -70 245 -62 268 11 20 63
-102 120 -196 91z"/>
<path d="M10152 5098 c-23 -30 -40 -77 -46 -132 -11 -101 -35 -137 -190 -295
-143 -146 -161 -168 -177 -223 -11 -41 -2 -58 33 -58 44 0 83 24 175 111 66
62 90 79 114 79 41 0 52 -34 46 -132 -8 -125 -32 -164 -210 -346 -159 -162
-187 -199 -187 -252 0 -27 3 -30 30 -30 45 0 98 31 155 90 73 76 144 130 170
130 51 0 59 -139 13 -237 -15 -32 -73 -100 -175 -205 -149 -153 -183 -200
-183 -253 0 -33 22 -41 72 -26 28 9 69 40 137 105 106 102 134 118 160 92 13
-14 16 -35 14 -109 -4 -225 47 -567 85 -567 5 0 17 24 26 53 32 103 48 225 54
419 5 130 11 201 19 209 22 22 63 -1 152 -86 145 -137 235 -156 201 -42 -9 31
-46 76 -164 197 -180 185 -199 216 -204 338 -7 143 26 149 159 26 99 -90 152
-124 194 -124 35 0 41 22 20 78 -14 36 -52 82 -171 203 -187 190 -204 219
-204 356 0 70 4 95 16 107 8 9 18 16 20 16 16 0 59 -32 137 -102 89 -80 119
-98 163 -98 32 0 40 22 25 72 -10 32 -47 76 -161 193 -81 83 -157 170 -169
193 -12 23 -25 73 -30 111 -9 69 -21 101 -49 134 -18 20 -55 23 -70 5z"/>
<path d="M3305 4594 c-27 -27 -42 -67 -49 -129 -10 -90 -44 -153 -134 -247
-44 -46 -87 -97 -96 -115 -20 -40 -21 -92 -1 -99 22 -9 79 14 129 52 85 65
111 37 103 -108 -6 -124 -26 -157 -183 -318 -101 -104 -135 -145 -144 -177
-16 -52 -8 -73 25 -73 38 0 81 25 164 96 43 37 84 64 97 64 32 0 44 -44 44
-164 1 -186 40 -386 76 -386 41 0 72 135 80 340 7 175 10 197 34 205 25 8 53
-8 120 -67 63 -57 118 -88 154 -88 35 0 40 15 25 68 -11 40 -34 69 -146 184
-157 160 -175 192 -181 318 -6 140 21 171 98 110 79 -63 150 -74 150 -24 0 47
-29 94 -113 182 -97 103 -124 152 -136 249 -5 39 -14 79 -20 91 -28 52 -66 66
-96 36z"/>
<path d="M7228 1880 c-156 -25 -284 -84 -374 -174 -65 -65 -94 -128 -94 -201
0 -39 34 -85 61 -85 30 0 69 44 69 79 0 63 185 188 314 212 116 21 208 -12
254 -91 23 -38 27 -56 26 -120 -1 -94 -32 -168 -99 -235 -45 -46 -146 -101
-195 -107 l-25 -3 -1 175 c0 191 -8 224 -50 240 -34 13 -60 5 -80 -26 -14 -21
-16 -76 -12 -471 4 -404 6 -452 22 -491 21 -50 58 -82 86 -75 43 11 45 25 41
245 l-3 210 69 -43 c89 -55 427 -280 479 -320 45 -34 96 -41 120 -17 24 24 29
91 10 121 -17 25 -186 144 -388 271 l-108 68 58 42 c199 147 275 328 226 536
-18 80 -50 135 -105 184 -77 70 -177 95 -301 76z"/>
<path d="M6095 1856 c-137 -27 -224 -67 -301 -138 -71 -66 -84 -140 -26 -155
40 -10 52 -7 138 42 131 75 188 90 339 90 119 0 135 -2 186 -26 47 -22 60 -34
79 -73 38 -79 14 -157 -80 -259 -42 -46 -174 -147 -193 -147 -2 0 -10 51 -16
113 -14 128 -36 185 -87 223 -42 33 -76 27 -94 -16 -10 -24 -9 -53 4 -152 27
-206 36 -323 42 -553 7 -244 12 -262 69 -289 43 -21 73 -13 86 21 5 13 9 120
9 237 l0 212 92 65 c136 94 257 217 299 304 31 64 34 77 34 165 0 84 -3 102
-28 152 -36 73 -99 129 -185 163 -56 23 -85 28 -182 31 -71 2 -142 -2 -185
-10z"/>
<path d="M1416 1791 c-57 -9 -76 -29 -76 -83 0 -52 30 -70 126 -76 41 -2 74
-8 74 -12 0 -4 20 -149 44 -321 25 -173 50 -359 56 -414 6 -55 16 -114 21
-132 15 -46 64 -85 103 -81 28 3 32 7 39 48 6 31 3 100 -11 220 -11 96 -19
176 -17 178 1 1 65 7 142 12 169 12 309 34 330 52 22 18 32 50 22 69 -5 9 -26
24 -48 32 -33 14 -59 15 -173 7 -164 -11 -298 -13 -298 -2 0 4 -11 77 -25 162
-14 85 -25 161 -25 168 0 14 109 11 335 -8 82 -7 105 -6 132 7 40 19 46 27 38
53 -9 28 -49 47 -151 71 -176 42 -518 69 -638 50z"/>
<path d="M8071 1717 c-30 -37 -41 -102 -41 -241 0 -299 50 -675 97 -729 60
-69 92 -81 117 -45 21 29 20 72 -3 193 -28 146 -51 383 -58 608 -5 151 -10
202 -20 213 -18 18 -77 18 -92 1z"/>
<path d="M5184 1705 c-232 -34 -550 -147 -607 -215 -31 -36 -29 -63 5 -92 28
-25 40 -23 169 23 279 100 519 149 758 154 85 3 158 8 162 12 19 19 19 59 0
89 -15 25 -28 32 -66 37 -77 11 -323 6 -421 -8z"/>
<path d="M10230 1706 c-234 -36 -570 -155 -614 -218 -9 -12 -16 -32 -16 -43 0
-24 39 -65 61 -65 8 0 80 22 160 50 292 99 491 139 734 146 111 3 161 8 167
17 19 29 0 99 -31 113 -30 14 -373 13 -461 0z"/>
<path d="M9343 1651 c-18 -11 -35 -31 -37 -43 -3 -13 -15 -117 -26 -233 -21
-205 -57 -486 -65 -493 -2 -2 -57 67 -122 155 -115 154 -289 341 -365 393 -22
14 -43 40 -52 62 -27 70 -102 73 -131 4 -19 -45 -38 -378 -33 -596 3 -155 6
-181 25 -223 17 -35 31 -51 57 -62 64 -27 62 -34 70 288 4 161 10 309 13 330
l6 39 54 -54 c69 -67 190 -214 317 -385 77 -104 108 -137 140 -153 70 -33 117
-26 142 21 28 56 74 366 109 743 16 172 16 179 -1 197 -30 28 -65 32 -101 10z"/>
<path d="M2719 1622 c-45 -5 -131 -64 -172 -117 -114 -147 -161 -358 -122
-545 26 -123 81 -203 177 -255 63 -34 174 -45 260 -25 153 36 311 168 389 325
l44 88 0 131 c0 123 -2 135 -28 191 -30 64 -81 123 -135 157 -80 49 -242 65
-313 30 -30 -15 -39 -16 -39 -6 0 18 -29 31 -61 26z m322 -193 c79 -40 114
-112 107 -220 -13 -179 -184 -353 -360 -366 -86 -6 -142 23 -178 93 -23 44
-25 60 -25 174 0 115 2 130 27 183 36 77 64 115 101 137 29 18 31 18 43 2 11
-16 15 -16 61 0 26 9 59 19 73 22 41 7 112 -5 151 -25z"/>
<path d="M3807 1618 c-158 -34 -297 -278 -297 -522 0 -195 71 -336 200 -397
63 -31 187 -37 266 -14 172 49 343 210 401 378 28 81 25 264 -5 339 -32 80
-97 148 -174 183 -85 39 -223 47 -280 17 -36 -19 -38 -19 -43 -2 -8 24 -23 28
-68 18z m294 -174 c237 -70 173 -437 -99 -571 -47 -23 -70 -28 -132 -28 -94 0
-131 22 -168 103 -21 46 -25 70 -25 146 0 149 41 260 120 325 43 35 53 38 53
15 0 -18 9 -17 105 10 66 19 81 19 146 0z"/>
<path d="M5132 1473 l-23 -18 11 -175 c5 -96 10 -251 11 -345 1 -188 9 -279
27 -297 22 -22 73 -13 99 16 22 26 23 32 23 226 0 212 -15 481 -31 541 -11 43
-25 57 -65 65 -21 4 -37 0 -52 -13z"/>
<path d="M10175 1476 c-14 -10 -18 -24 -16 -62 1 -27 8 -208 14 -401 14 -390
13 -387 79 -385 50 1 64 27 72 131 12 154 -12 623 -35 682 -17 43 -77 62 -114
35z"/>
</g>
</svg>
